<svg width="100" height="100" viewBox="0 0 100 100" fill="none" xmlns="http://www.w3.org/2000/svg">
<path fill-rule="evenodd" clip-rule="evenodd" d="M50.0003 1.04167C37.8275 1.04167 27.7762 10.1187 26.2441 21.875L23.4834 21.875C19.3347 21.8749 15.8943 21.8748 13.1943 22.252C10.3558 22.6486 7.80519 23.5244 5.86549 25.6915C3.92578 27.8587 3.33707 30.4904 3.25635 33.3553C3.17957 36.0805 3.5596 39.4998 4.01787 43.6231L5.30074 55.1689C6.25921 63.7956 7.01196 70.5707 8.2905 75.8366C9.601 81.2342 11.5501 85.4466 15.1687 88.6854C18.7907 91.9272 23.2135 93.3973 28.7526 94.1029C34.1607 94.7918 41.028 94.7917 49.7773 94.7917H50.2232C58.9725 94.7917 65.8399 94.7918 71.248 94.1029C76.7871 93.3973 81.2099 91.9272 84.8319 88.6854C88.4504 85.4466 90.3996 81.2342 91.7101 75.8366C92.9886 70.5708 93.7413 63.7958 94.6998 55.1693L95.9827 43.623C96.441 39.4999 96.821 36.0804 96.7442 33.3553C96.6635 30.4904 96.0748 27.8587 94.1351 25.6915C92.1954 23.5244 89.6448 22.6486 86.8063 22.252C84.1063 21.8748 80.6659 21.8749 76.5172 21.875L73.7565 21.875C72.2247 10.119 62.173 1.04167 50.0003 1.04167ZM50.0003 7.29167C58.714 7.29167 65.9584 13.586 67.4339 21.875H32.5665C34.0418 13.5863 41.2866 7.29167 50.0003 7.29167ZM10.5225 29.8598C11.0672 29.2513 11.9314 28.7392 14.0591 28.4419C16.2755 28.1322 19.2755 28.125 23.714 28.125H76.2866C80.7251 28.125 83.725 28.1322 85.9414 28.4419C88.0692 28.7392 88.9334 29.2513 89.478 29.8598C90.0227 30.4683 90.4362 31.3837 90.4967 33.5313C90.5597 35.7684 90.2356 38.7508 89.7455 43.1621L88.5128 54.2562C87.5241 63.1539 86.8096 69.5304 85.6365 74.362C84.4844 79.1071 82.9776 81.9572 80.6636 84.0283C78.3531 86.0963 75.3406 87.2811 70.4582 87.903C65.4907 88.5357 59.0212 88.5417 50.0003 88.5417C40.9793 88.5417 34.5099 88.5357 29.5424 87.903C24.66 87.2811 21.6474 86.0963 19.3369 84.0283C17.023 81.9572 15.5161 79.1071 14.364 74.362C13.191 69.5304 12.4764 63.1539 11.4878 54.2562L10.2551 43.1621C9.76497 38.7508 9.44084 35.7684 9.50387 33.5313C9.56438 31.3837 9.97792 30.4683 10.5225 29.8598Z" fill="white"/>
<path d="M34.9688 46.7812H41.3594L50.1406 58.9375L58.4844 46.7812H64.7031V70H55.6875V58.1406L47.0312 70.2969L38.4062 58.1406V70H34.9688V46.7812Z" fill="white"/>
</svg>
